<?xml version="1.0" encoding="UTF-8" standalone="no"?>
<!DOCTYPE svg PUBLIC "-//W3C//DTD SVG 1.1//EN"
 "http://www.w3.org/Graphics/SVG/1.1/DTD/svg11.dtd">
<!-- Generated by graphviz version 2.43.0 (0)
 -->
<!-- Title: %3 Pages: 1 -->
<svg width="430pt" height="277pt"
 viewBox="0.00 0.00 430.17 277.00" xmlns="http://www.w3.org/2000/svg" xmlns:xlink="http://www.w3.org/1999/xlink">
<g id="graph0" class="graph" transform="scale(1 1) rotate(0) translate(4 273)">
<title>%3</title>
<polygon fill="white" stroke="transparent" points="-4,4 -4,-273 426.17,-273 426.17,4 -4,4"/>
<!-- recognize -->
<g id="node1" class="node">
<title>recognize</title>
<ellipse fill="none" stroke="black" cx="290.23" cy="-251" rx="131.88" ry="18"/>
<text text-anchor="middle" x="290.23" y="-247.3" font-family="Times,serif" font-size="14.00">Attempt to recognize the situation</text>
</g>
<!-- ifrecognize -->
<g id="node2" class="node">
<title>ifrecognize</title>
<polygon fill="none" stroke="black" points="237.23,-196 158.13,-178 237.23,-160 316.32,-178 237.23,-196"/>
<text text-anchor="middle" x="237.23" y="-174.3" font-family="Times,serif" font-size="14.00">Recognized?</text>
</g>
<!-- recognize&#45;&gt;ifrecognize -->
<g id="edge1" class="edge">
<title>recognize&#45;&gt;ifrecognize</title>
<path fill="none" stroke="black" d="M277.4,-232.81C270.41,-223.45 261.67,-211.75 254.13,-201.65"/>
<polygon fill="black" stroke="black" points="256.93,-199.55 248.15,-193.63 251.33,-203.74 256.93,-199.55"/>
</g>
<!-- knowaction -->
<g id="node3" class="node">
<title>knowaction</title>
<polygon fill="none" stroke="black" points="145.23,-109 -0.23,-91 145.23,-73 290.68,-91 145.23,-109"/>
<text text-anchor="middle" x="145.23" y="-87.3" font-family="Times,serif" font-size="14.00">Know appropriate action?</text>
</g>
<!-- ifrecognize&#45;&gt;knowaction -->
<g id="edge2" class="edge">
<title>ifrecognize&#45;&gt;knowaction</title>
<path fill="none" stroke="black" d="M222.45,-163.34C208.13,-150.12 186.17,-129.83 169.33,-114.26"/>
<polygon fill="black" stroke="black" points="171.24,-111.27 161.52,-107.06 166.49,-116.41 171.24,-111.27"/>
<text text-anchor="middle" x="206.73" y="-130.8" font-family="Times,serif" font-size="14.00">yes</text>
</g>
<!-- clarify -->
<g id="node4" class="node">
<title>clarify</title>
<ellipse fill="none" stroke="black" cx="344.23" cy="-91" rx="36" ry="18"/>
<text text-anchor="middle" x="344.23" y="-87.3" font-family="Times,serif" font-size="14.00">Clarify</text>
</g>
<!-- ifrecognize&#45;&gt;clarify -->
<g id="edge3" class="edge">
<title>ifrecognize&#45;&gt;clarify</title>
<path fill="none" stroke="black" d="M253.95,-163.72C271.02,-150.15 297.78,-128.89 317.74,-113.04"/>
<polygon fill="black" stroke="black" points="320.18,-115.57 325.83,-106.61 315.83,-110.09 320.18,-115.57"/>
<text text-anchor="middle" x="304.23" y="-130.8" font-family="Times,serif" font-size="14.00">no</text>
</g>
<!-- takeaction -->
<g id="node5" class="node">
<title>takeaction</title>
<ellipse fill="none" stroke="black" cx="145.23" cy="-18" rx="65.79" ry="18"/>
<text text-anchor="middle" x="145.23" y="-14.3" font-family="Times,serif" font-size="14.00">Take the action</text>
</g>
<!-- knowaction&#45;&gt;takeaction -->
<g id="edge5" class="edge">
<title>knowaction&#45;&gt;takeaction</title>
<path fill="none" stroke="black" d="M145.23,-72.81C145.23,-64.79 145.23,-55.05 145.23,-46.07"/>
<polygon fill="black" stroke="black" points="148.73,-46.03 145.23,-36.03 141.73,-46.03 148.73,-46.03"/>
</g>
<!-- clarify&#45;&gt;recognize -->
<g id="edge4" class="edge">
<title>clarify&#45;&gt;recognize</title>
<path fill="none" stroke="black" d="M343.16,-109.13C341.39,-130.23 336.81,-166.83 325.23,-196 321.27,-205.97 315.36,-216.05 309.52,-224.77"/>
<polygon fill="black" stroke="black" points="306.64,-222.77 303.77,-232.97 312.37,-226.79 306.64,-222.77"/>
</g>
</g>
</svg>
